<svg xmlns="http://www.w3.org/2000/svg" xmlns:xlink="http://www.w3.org/1999/xlink" width="300" zoomAndPan="magnify" viewBox="0 0 224.87999 225" height="300" preserveAspectRatio="xMidYMid meet" version="1.0"><defs><clipPath id="id1"><path d="M 32.328125 137 L 192.742188 137 L 192.742188 224.9375 L 32.328125 224.9375 Z M 32.328125 137 " clip-rule="nonzero"/></clipPath><clipPath id="id2"><path d="M 100 169 L 126 169 L 126 224.9375 L 100 224.9375 Z M 100 169 " clip-rule="nonzero"/></clipPath><clipPath id="id3"><path d="M 58 190 L 63 190 L 63 224.9375 L 58 224.9375 Z M 58 190 " clip-rule="nonzero"/></clipPath><clipPath id="id4"><path d="M 162 190 L 167 190 L 167 224.9375 L 162 224.9375 Z M 162 190 " clip-rule="nonzero"/></clipPath><clipPath id="id5"><path d="M 109 0.0585938 L 114 0.0585938 L 114 13 L 109 13 Z M 109 0.0585938 " clip-rule="nonzero"/></clipPath></defs><g clip-path="url(#id1)"><path fill="#212126" d="M 36.628906 220.894531 L 188.285156 220.894531 L 188.285156 181.398438 C 188.285156 159.625 170.550781 141.910156 148.746094 141.910156 L 139.632812 141.910156 L 114.1875 161.242188 C 113.492188 161.773438 112.539062 161.78125 111.828125 161.269531 L 85.304688 141.910156 L 76.167969 141.910156 C 74.785156 141.910156 73.386719 141.984375 72.011719 142.128906 C 51.839844 144.253906 36.628906 161.140625 36.628906 181.398438 Z M 190.261719 224.839844 L 34.65625 224.839844 C 33.566406 224.839844 32.683594 223.953125 32.683594 222.867188 L 32.683594 181.398438 C 32.683594 170.640625 36.6875 160.296875 43.96875 152.28125 C 51.195312 144.320312 61.003906 139.324219 71.597656 138.203125 C 73.109375 138.042969 74.648438 137.96875 76.167969 137.96875 L 85.953125 137.964844 C 86.371094 137.964844 86.777344 138.09375 87.117188 138.34375 L 112.972656 157.214844 L 137.769531 138.367188 C 138.117188 138.105469 138.535156 137.96875 138.96875 137.96875 L 148.75 137.964844 C 172.730469 137.964844 192.234375 157.449219 192.234375 181.398438 L 192.234375 222.867188 C 192.234375 223.953125 191.351562 224.839844 190.261719 224.839844 Z M 190.261719 224.839844 " fill-opacity="1" fill-rule="evenodd"/></g><path fill="#212126" d="M 85.953125 141.910156 C 85.449219 141.910156 84.945312 141.714844 84.558594 141.335938 C 83.785156 140.566406 83.785156 139.316406 84.550781 138.546875 C 87.605469 135.476562 89.144531 131.226562 89.125 125.917969 C 89.121094 124.828125 90.003906 123.941406 91.09375 123.941406 C 91.09375 123.941406 91.101562 123.941406 91.101562 123.941406 C 92.191406 123.941406 93.070312 124.816406 93.074219 125.902344 C 93.097656 132.300781 91.171875 137.488281 87.351562 141.324219 C 86.964844 141.714844 86.457031 141.910156 85.953125 141.910156 Z M 85.953125 141.910156 " fill-opacity="1" fill-rule="evenodd"/><path fill="#212126" d="M 112.996094 161.648438 C 110.414062 161.648438 108.316406 163.746094 108.316406 166.324219 C 108.316406 168.902344 110.414062 170.996094 112.996094 170.996094 C 115.578125 170.996094 117.675781 168.902344 117.675781 166.324219 C 117.675781 163.746094 115.578125 161.648438 112.996094 161.648438 Z M 112.996094 174.941406 C 108.238281 174.941406 104.367188 171.074219 104.367188 166.324219 C 104.367188 161.570312 108.238281 157.703125 112.996094 157.703125 C 117.753906 157.703125 121.625 161.570312 121.625 166.324219 C 121.625 171.074219 117.75 174.941406 112.996094 174.941406 Z M 112.996094 174.941406 " fill-opacity="1" fill-rule="evenodd"/><g clip-path="url(#id2)"><path fill="#212126" d="M 123.492188 224.835938 C 122.511719 224.835938 121.664062 224.109375 121.535156 223.113281 L 114.976562 172.03125 C 114.835938 170.953125 115.597656 169.96875 116.683594 169.832031 C 117.761719 169.691406 118.753906 170.453125 118.886719 171.535156 L 125.453125 222.613281 C 125.59375 223.691406 124.828125 224.679688 123.746094 224.816406 C 123.660156 224.832031 123.578125 224.835938 123.492188 224.835938 Z M 102.519531 224.847656 C 102.4375 224.847656 102.355469 224.84375 102.269531 224.832031 C 101.1875 224.691406 100.421875 223.707031 100.5625 222.625 L 107.101562 171.535156 C 107.234375 170.457031 108.230469 169.6875 109.308594 169.832031 C 110.394531 169.96875 111.15625 170.953125 111.015625 172.035156 L 104.480469 223.125 C 104.351562 224.117188 103.503906 224.847656 102.519531 224.847656 Z M 102.519531 224.847656 " fill-opacity="1" fill-rule="evenodd"/></g><path fill="#212126" d="M 89.425781 176.855469 C 89.042969 176.855469 88.667969 176.75 88.339844 176.53125 C 87.679688 176.09375 87.339844 175.316406 87.480469 174.539062 L 92.601562 145.863281 C 92.792969 144.792969 93.820312 144.074219 94.894531 144.269531 C 95.964844 144.457031 96.679688 145.484375 96.488281 146.558594 L 92.175781 170.722656 L 105.972656 161.671875 C 106.882812 161.074219 108.105469 161.328125 108.707031 162.238281 C 109.304688 163.148438 109.050781 164.371094 108.140625 164.972656 L 90.507812 176.53125 C 90.179688 176.746094 89.804688 176.855469 89.425781 176.855469 Z M 89.425781 176.855469 " fill-opacity="1" fill-rule="evenodd"/><path fill="#212126" d="M 136.585938 176.855469 C 136.210938 176.855469 135.835938 176.75 135.511719 176.539062 L 117.777344 164.980469 C 116.863281 164.386719 116.605469 163.164062 117.203125 162.25 C 117.796875 161.339844 119.023438 161.082031 119.9375 161.671875 L 133.734375 170.667969 L 128.90625 146.496094 C 128.695312 145.429688 129.390625 144.390625 130.457031 144.175781 C 131.527344 143.960938 132.566406 144.652344 132.78125 145.722656 L 138.527344 174.5 C 138.679688 175.277344 138.355469 176.074219 137.691406 176.515625 C 137.363281 176.742188 136.972656 176.855469 136.585938 176.855469 Z M 136.585938 176.855469 " fill-opacity="1" fill-rule="evenodd"/><g clip-path="url(#id3)"><path fill="#212126" d="M 60.578125 224.835938 C 59.488281 224.835938 58.601562 223.953125 58.601562 222.863281 L 58.601562 192.527344 C 58.601562 191.4375 59.488281 190.554688 60.578125 190.554688 C 61.667969 190.554688 62.550781 191.4375 62.550781 192.527344 L 62.550781 222.863281 C 62.550781 223.953125 61.667969 224.835938 60.578125 224.835938 Z M 60.578125 224.835938 " fill-opacity="1" fill-rule="evenodd"/></g><g clip-path="url(#id4)"><path fill="#212126" d="M 164.34375 224.835938 C 163.25 224.835938 162.371094 223.953125 162.371094 222.863281 L 162.371094 192.527344 C 162.371094 191.4375 163.25 190.554688 164.34375 190.554688 C 165.433594 190.554688 166.3125 191.4375 166.3125 192.527344 L 166.3125 222.863281 C 166.3125 223.953125 165.433594 224.835938 164.34375 224.835938 Z M 164.34375 224.835938 " fill-opacity="1" fill-rule="evenodd"/></g><path fill="#212126" d="M 138.96875 141.910156 C 138.460938 141.910156 137.949219 141.714844 137.5625 141.324219 C 132.191406 135.925781 130.96875 128.886719 130.683594 126.105469 C 130.578125 125.023438 131.367188 124.058594 132.453125 123.949219 C 133.542969 123.84375 134.503906 124.632812 134.617188 125.710938 C 135.105469 130.625 137.253906 135.425781 140.367188 138.546875 C 141.136719 139.316406 141.132812 140.566406 140.355469 141.335938 C 139.976562 141.714844 139.472656 141.910156 138.96875 141.910156 Z M 138.96875 141.910156 " fill-opacity="1" fill-rule="evenodd"/><path fill="#212126" d="M 93.054688 123.941406 L 130.695312 123.941406 C 131.117188 103.390625 138.09375 92.671875 143.734375 84 C 148.042969 77.375 151.453125 72.140625 151.453125 64.253906 C 151.453125 42.457031 133.699219 24.722656 111.875 24.722656 C 90.050781 24.722656 72.300781 42.457031 72.300781 64.253906 C 72.300781 72.140625 75.707031 77.375 80.019531 84 C 85.65625 92.671875 92.632812 103.390625 93.054688 123.941406 Z M 93.074219 125.910156 L 93.082031 125.910156 Z M 132.648438 127.882812 L 91.101562 127.882812 C 90.011719 127.882812 89.125 127 89.125 125.910156 C 89.125 105.238281 82.527344 95.101562 76.707031 86.152344 C 72.410156 79.546875 68.351562 73.3125 68.351562 64.253906 C 68.351562 40.277344 87.875 20.777344 111.875 20.777344 C 135.878906 20.777344 155.402344 40.277344 155.402344 64.253906 C 155.402344 73.3125 151.339844 79.546875 147.046875 86.152344 C 141.226562 95.101562 134.621094 105.238281 134.621094 125.910156 C 134.625 127 133.742188 127.882812 132.648438 127.882812 Z M 132.648438 127.882812 " fill-opacity="1" fill-rule="evenodd"/><g clip-path="url(#id5)"><path fill="#212126" d="M 111.875 12.507812 C 110.785156 12.507812 109.898438 11.625 109.898438 10.535156 L 109.898438 1.972656 C 109.898438 0.882812 110.785156 0 111.875 0 C 112.964844 0 113.847656 0.886719 113.847656 1.972656 L 113.847656 10.535156 C 113.847656 11.625 112.964844 12.507812 111.875 12.507812 Z M 111.875 12.507812 " fill-opacity="1" fill-rule="evenodd"/></g><path fill="#212126" d="M 143.8125 21.054688 C 143.472656 21.054688 143.132812 20.96875 142.824219 20.785156 C 141.878906 20.242188 141.554688 19.035156 142.101562 18.097656 L 146.386719 10.679688 C 146.933594 9.738281 148.140625 9.414062 149.082031 9.960938 C 150.03125 10.503906 150.351562 11.710938 149.808594 12.652344 L 145.519531 20.066406 C 145.15625 20.699219 144.492188 21.054688 143.8125 21.054688 Z M 143.8125 21.054688 " fill-opacity="1" fill-rule="evenodd"/><path fill="#212126" d="M 167.191406 44.402344 C 166.507812 44.402344 165.84375 44.046875 165.480469 43.417969 C 164.9375 42.476562 165.257812 41.269531 166.199219 40.726562 L 173.625 36.441406 C 174.570312 35.898438 175.773438 36.222656 176.320312 37.164062 C 176.863281 38.109375 176.546875 39.3125 175.601562 39.855469 L 168.175781 44.140625 C 167.867188 44.320312 167.527344 44.402344 167.191406 44.402344 Z M 167.191406 44.402344 " fill-opacity="1" fill-rule="evenodd"/><path fill="#212126" d="M 184.316406 76.300781 L 175.75 76.300781 C 174.660156 76.300781 173.773438 75.417969 173.773438 74.332031 C 173.773438 73.242188 174.660156 72.359375 175.75 72.359375 L 184.316406 72.359375 C 185.40625 72.359375 186.289062 73.242188 186.289062 74.332031 C 186.289062 75.417969 185.40625 76.300781 184.316406 76.300781 Z M 184.316406 76.300781 " fill-opacity="1" fill-rule="evenodd"/><path fill="#212126" d="M 174.613281 112.480469 C 174.273438 112.480469 173.933594 112.394531 173.625 112.21875 L 166.199219 107.933594 C 165.257812 107.390625 164.933594 106.183594 165.480469 105.246094 C 166.023438 104.300781 167.234375 103.976562 168.175781 104.519531 L 175.597656 108.796875 C 176.546875 109.34375 176.863281 110.550781 176.320312 111.496094 C 175.953125 112.125 175.289062 112.480469 174.613281 112.480469 Z M 174.613281 112.480469 " fill-opacity="1" fill-rule="evenodd"/><path fill="#212126" d="M 49.140625 112.480469 C 48.457031 112.480469 47.792969 112.125 47.429688 111.496094 C 46.882812 110.550781 47.207031 109.34375 48.152344 108.796875 L 55.574219 104.519531 C 56.519531 103.976562 57.726562 104.300781 58.273438 105.246094 C 58.820312 106.183594 58.496094 107.390625 57.546875 107.9375 L 50.128906 112.21875 C 49.816406 112.394531 49.476562 112.480469 49.140625 112.480469 Z M 49.140625 112.480469 " fill-opacity="1" fill-rule="evenodd"/><path fill="#212126" d="M 48.003906 76.300781 L 39.433594 76.300781 C 38.34375 76.300781 37.457031 75.417969 37.457031 74.332031 C 37.457031 73.242188 38.34375 72.359375 39.433594 72.359375 L 48.003906 72.359375 C 49.09375 72.359375 49.980469 73.242188 49.980469 74.332031 C 49.980469 75.417969 49.09375 76.300781 48.003906 76.300781 Z M 48.003906 76.300781 " fill-opacity="1" fill-rule="evenodd"/><path fill="#212126" d="M 56.5625 44.402344 C 56.226562 44.402344 55.886719 44.320312 55.574219 44.140625 L 48.152344 39.855469 C 47.207031 39.3125 46.882812 38.109375 47.429688 37.164062 C 47.972656 36.21875 49.183594 35.898438 50.128906 36.441406 L 57.546875 40.726562 C 58.496094 41.269531 58.820312 42.476562 58.273438 43.417969 C 57.910156 44.046875 57.238281 44.402344 56.5625 44.402344 Z M 56.5625 44.402344 " fill-opacity="1" fill-rule="evenodd"/><path fill="#212126" d="M 79.941406 21.054688 C 79.257812 21.054688 78.59375 20.699219 78.230469 20.066406 L 73.945312 12.652344 C 73.402344 11.710938 73.726562 10.503906 74.667969 9.960938 C 75.613281 9.414062 76.820312 9.738281 77.367188 10.679688 L 81.648438 18.09375 C 82.195312 19.035156 81.871094 20.242188 80.929688 20.785156 C 80.617188 20.964844 80.277344 21.054688 79.941406 21.054688 Z M 79.941406 21.054688 " fill-opacity="1" fill-rule="evenodd"/></svg>