<svg xmlns="http://www.w3.org/2000/svg" xmlns:xlink="http://www.w3.org/1999/xlink" width="300" zoomAndPan="magnify" viewBox="0 0 224.87999 225" height="300" preserveAspectRatio="xMidYMid meet" version="1.0"><defs><clipPath id="id1"><path d="M 9.699219 0.0585938 L 178 0.0585938 L 178 214 L 9.699219 214 Z M 9.699219 0.0585938 " clip-rule="nonzero"/></clipPath><clipPath id="id2"><path d="M 51.703125 175.65625 L 80 175.65625 L 80 224.765625 L 51.703125 224.765625 Z M 51.703125 175.65625 " clip-rule="nonzero"/></clipPath><clipPath id="id3"><path d="M 185.015625 78.210938 L 215.085938 78.210938 L 215.085938 176 L 185.015625 176 Z M 185.015625 78.210938 " clip-rule="nonzero"/></clipPath><clipPath id="id4"><path d="M 185.015625 168.347656 L 215.085938 168.347656 L 215.085938 198.796875 L 185.015625 198.796875 Z M 185.015625 168.347656 " clip-rule="nonzero"/></clipPath><clipPath id="id5"><path d="M 185.015625 61.160156 L 215.085938 61.160156 L 215.085938 85.519531 L 185.015625 85.519531 Z M 185.015625 61.160156 " clip-rule="nonzero"/></clipPath></defs><g clip-path="url(#id1)"><path fill="#212126" d="M 168.519531 213.519531 L 75.359375 213.519531 C 73.421875 213.519531 71.851562 211.949219 71.851562 210.011719 C 71.851562 208.074219 73.421875 206.503906 75.359375 206.503906 L 168.519531 206.503906 C 169.808594 206.503906 170.859375 205.453125 170.859375 204.164062 L 170.859375 46.292969 C 170.859375 44.105469 170.007812 42.050781 168.460938 40.503906 L 137.640625 9.667969 C 136.09375 8.121094 134.042969 7.269531 131.855469 7.269531 L 19.046875 7.269531 C 17.757812 7.269531 16.710938 8.320312 16.710938 9.609375 L 16.710938 204.164062 C 16.710938 205.453125 17.757812 206.5 19.046875 206.5 L 62.363281 206.5 C 64.296875 206.5 65.867188 208.074219 65.867188 210.011719 C 65.867188 211.945312 64.296875 213.519531 62.363281 213.519531 L 19.046875 213.519531 C 13.894531 213.519531 9.699219 209.324219 9.699219 204.164062 L 9.699219 9.609375 C 9.699219 4.453125 13.894531 0.253906 19.046875 0.253906 L 131.855469 0.253906 C 135.914062 0.253906 139.730469 1.835938 142.597656 4.707031 L 173.417969 35.542969 C 176.289062 38.414062 177.871094 42.230469 177.871094 46.292969 L 177.871094 204.164062 C 177.871094 209.324219 173.675781 213.519531 168.519531 213.519531 " fill-opacity="1" fill-rule="evenodd"/></g><path fill="#212126" d="M 173.3125 44.957031 L 136.699219 44.957031 C 134.757812 44.957031 133.191406 43.386719 133.191406 41.445312 L 133.191406 4.816406 C 133.191406 2.878906 134.757812 1.304688 136.699219 1.304688 C 138.632812 1.304688 140.203125 2.878906 140.203125 4.816406 L 140.203125 37.9375 L 173.3125 37.9375 C 175.246094 37.9375 176.816406 39.511719 176.816406 41.445312 C 176.816406 43.386719 175.246094 44.957031 173.3125 44.957031 " fill-opacity="1" fill-rule="evenodd"/><path fill="#212126" d="M 152.492188 86.902344 L 35.074219 86.902344 C 33.140625 86.902344 31.570312 85.332031 31.570312 83.394531 C 31.570312 81.457031 33.140625 79.882812 35.074219 79.882812 L 152.492188 79.882812 C 154.429688 79.882812 156 81.457031 156 83.394531 C 156 85.332031 154.429688 86.902344 152.492188 86.902344 " fill-opacity="1" fill-rule="evenodd"/><path fill="#212126" d="M 152.492188 63.097656 L 35.074219 63.097656 C 33.140625 63.097656 31.570312 61.527344 31.570312 59.589844 C 31.570312 57.652344 33.140625 56.082031 35.074219 56.082031 L 152.492188 56.082031 C 154.429688 56.082031 156 57.652344 156 59.589844 C 156 61.527344 154.429688 63.097656 152.492188 63.097656 " fill-opacity="1" fill-rule="evenodd"/><path fill="#212126" d="M 98.554688 39.292969 L 35.074219 39.292969 C 33.140625 39.292969 31.570312 37.722656 31.570312 35.789062 C 31.570312 33.847656 33.140625 32.277344 35.074219 32.277344 L 98.554688 32.277344 C 100.488281 32.277344 102.058594 33.847656 102.058594 35.789062 C 102.058594 37.722656 100.488281 39.292969 98.554688 39.292969 " fill-opacity="1" fill-rule="evenodd"/><path fill="#212126" d="M 92.058594 110.707031 L 35.074219 110.707031 C 33.140625 110.707031 31.570312 109.136719 31.570312 107.199219 C 31.570312 105.261719 33.140625 103.691406 35.074219 103.691406 L 92.058594 103.691406 C 93.996094 103.691406 95.566406 105.261719 95.566406 107.199219 C 95.566406 109.136719 93.996094 110.707031 92.058594 110.707031 " fill-opacity="1" fill-rule="evenodd"/><path fill="#212126" d="M 56.714844 134.5 L 35.074219 134.5 C 33.140625 134.5 31.570312 132.929688 31.570312 130.988281 C 31.570312 129.054688 33.140625 127.484375 35.074219 127.484375 L 56.714844 127.484375 C 58.652344 127.484375 60.222656 129.054688 60.222656 130.988281 C 60.222656 132.929688 58.652344 134.5 56.714844 134.5 " fill-opacity="1" fill-rule="evenodd"/><path fill="#212126" d="M 53.089844 186.109375 C 43.964844 186.109375 35.644531 179.917969 33.34375 170.667969 C 30.632812 159.777344 37.285156 148.707031 48.171875 145.996094 L 64.511719 141.925781 C 66.394531 141.460938 68.296875 142.605469 68.761719 144.484375 L 76.902344 177.183594 C 77.367188 179.0625 76.226562 180.96875 74.347656 181.433594 L 58.003906 185.507812 C 56.359375 185.917969 54.710938 186.109375 53.089844 186.109375 Z M 62.804688 149.582031 L 49.867188 152.804688 C 42.730469 154.582031 38.371094 161.835938 40.148438 168.976562 C 41.921875 176.113281 49.171875 180.476562 56.308594 178.699219 L 69.25 175.476562 L 62.804688 149.582031 " fill-opacity="1" fill-rule="evenodd"/><g clip-path="url(#id2)"><path fill="#212126" d="M 70.097656 224.765625 C 68.257812 224.765625 66.453125 224.242188 64.855469 223.222656 C 62.695312 221.847656 61.164062 219.714844 60.542969 217.222656 L 52.09375 183.277344 C 51.628906 181.398438 52.769531 179.496094 54.648438 179.027344 C 56.527344 178.558594 58.429688 179.703125 58.898438 181.585938 L 67.347656 215.527344 C 67.722656 217.039062 69.21875 218.007812 70.683594 217.6875 C 71.445312 217.519531 72.085938 217.058594 72.488281 216.390625 C 72.875 215.75 72.988281 215 72.808594 214.273438 L 64.355469 180.308594 C 63.886719 178.429688 65.03125 176.527344 66.90625 176.058594 C 68.789062 175.589844 70.691406 176.734375 71.160156 178.613281 L 79.609375 212.578125 C 80.246094 215.125 79.847656 217.761719 78.496094 220.007812 C 77.09375 222.347656 74.847656 223.957031 72.175781 224.542969 C 71.488281 224.691406 70.792969 224.765625 70.097656 224.765625 " fill-opacity="1" fill-rule="evenodd"/></g><path fill="#212126" d="M 65.359375 148.839844 C 63.824219 148.839844 62.414062 147.824219 61.984375 146.269531 C 61.464844 144.402344 62.558594 142.46875 64.421875 141.949219 C 84.933594 136.253906 102.351562 124.148438 113.457031 107.863281 C 114.550781 106.261719 116.730469 105.851562 118.332031 106.941406 C 119.929688 108.035156 120.34375 110.21875 119.25 111.816406 C 113.480469 120.273438 106.136719 127.722656 97.417969 133.953125 C 88.128906 140.589844 77.660156 145.554688 66.300781 148.710938 C 65.984375 148.800781 65.667969 148.839844 65.359375 148.839844 " fill-opacity="1" fill-rule="evenodd"/><path fill="#212126" d="M 135.992188 192.25 C 135.398438 192.25 134.804688 192.101562 134.265625 191.796875 C 115.265625 181.050781 93.9375 177.378906 74.210938 181.46875 C 72.316406 181.859375 70.460938 180.640625 70.066406 178.742188 C 69.671875 176.84375 70.894531 174.988281 72.789062 174.597656 C 83.011719 172.480469 93.679688 172.273438 104.5 173.984375 C 113.507812 175.410156 122.296875 178.121094 130.71875 182.074219 L 112.953125 110.691406 C 112.484375 108.8125 113.625 106.90625 115.503906 106.4375 C 117.386719 105.96875 119.289062 107.113281 119.757812 108.992188 L 139.394531 187.894531 C 139.730469 189.257812 139.226562 190.6875 138.113281 191.535156 C 137.492188 192.011719 136.742188 192.25 135.992188 192.25 " fill-opacity="1" fill-rule="evenodd"/><path fill="#212126" d="M 142.496094 197.550781 C 140.671875 197.550781 138.878906 197.058594 137.273438 196.089844 C 134.945312 194.691406 133.304688 192.46875 132.648438 189.828125 L 112.890625 110.449219 C 112.234375 107.8125 112.640625 105.078125 114.042969 102.75 C 115.445312 100.421875 117.664062 98.777344 120.300781 98.121094 C 122.9375 97.460938 125.671875 97.871094 128 99.269531 C 130.328125 100.671875 131.972656 102.898438 132.628906 105.53125 L 152.382812 184.914062 C 153.738281 190.359375 150.414062 195.890625 144.972656 197.246094 C 144.152344 197.449219 143.320312 197.550781 142.496094 197.550781 Z M 122.765625 104.832031 C 122.507812 104.832031 122.25 104.863281 121.996094 104.925781 C 121.179688 105.128906 120.488281 105.640625 120.050781 106.363281 C 119.617188 107.089844 119.492188 107.933594 119.695312 108.753906 L 139.449219 188.132812 C 139.65625 188.953125 140.167969 189.644531 140.890625 190.078125 C 141.613281 190.515625 142.460938 190.640625 143.28125 190.4375 C 144.96875 190.015625 146 188.296875 145.578125 186.605469 L 125.824219 107.230469 C 125.617188 106.410156 125.109375 105.71875 124.382812 105.285156 C 123.886719 104.984375 123.332031 104.832031 122.765625 104.832031 " fill-opacity="1" fill-rule="evenodd"/><path fill="#212126" d="M 142.082031 161.554688 C 140.511719 161.558594 139.078125 160.488281 138.683594 158.894531 C 138.214844 157.015625 139.359375 155.109375 141.238281 154.644531 C 143.527344 154.074219 145.457031 152.644531 146.671875 150.625 C 147.886719 148.601562 148.242188 146.226562 147.671875 143.9375 C 147.101562 141.648438 145.675781 139.714844 143.652344 138.5 C 141.632812 137.285156 139.261719 136.929688 136.972656 137.5 C 135.09375 137.96875 133.191406 136.824219 132.722656 134.945312 C 132.253906 133.066406 133.398438 131.160156 135.273438 130.691406 C 139.382812 129.667969 143.640625 130.304688 147.265625 132.488281 C 150.894531 134.671875 153.453125 138.132812 154.476562 142.242188 C 155.5 146.351562 154.863281 150.613281 152.679688 154.238281 C 150.5 157.867188 147.039062 160.425781 142.933594 161.449219 C 142.648438 161.523438 142.363281 161.554688 142.082031 161.554688 " fill-opacity="1" fill-rule="evenodd"/><g clip-path="url(#id3)"><path fill="#212126" d="M 211.582031 175.714844 L 189.121094 175.714844 C 187.183594 175.714844 185.617188 174.144531 185.617188 172.207031 L 185.617188 81.777344 C 185.617188 79.839844 187.183594 78.269531 189.121094 78.269531 L 211.582031 78.269531 C 213.519531 78.269531 215.085938 79.839844 215.085938 81.777344 L 215.085938 172.207031 C 215.085938 174.144531 213.519531 175.714844 211.582031 175.714844 Z M 192.628906 168.699219 L 208.074219 168.699219 L 208.074219 85.285156 L 192.628906 85.285156 L 192.628906 168.699219 " fill-opacity="1" fill-rule="evenodd"/></g><g clip-path="url(#id4)"><path fill="#212126" d="M 200.351562 198.425781 C 200.347656 198.425781 200.351562 198.425781 200.351562 198.425781 C 199.015625 198.425781 197.796875 197.667969 197.207031 196.472656 L 185.980469 173.765625 C 185.441406 172.675781 185.503906 171.386719 186.144531 170.359375 C 186.78125 169.328125 187.910156 168.699219 189.121094 168.699219 L 211.578125 168.699219 C 212.792969 168.699219 213.917969 169.328125 214.558594 170.359375 C 215.199219 171.386719 215.261719 172.675781 214.722656 173.765625 L 203.492188 196.472656 C 202.902344 197.667969 201.683594 198.425781 200.351562 198.425781 Z M 194.769531 175.714844 L 200.351562 187.003906 L 205.933594 175.714844 Z M 194.769531 175.714844 " fill-opacity="1" fill-rule="evenodd"/></g><g clip-path="url(#id5)"><path fill="#212126" d="M 211.582031 85.285156 L 189.121094 85.285156 C 187.183594 85.285156 185.617188 83.714844 185.617188 81.777344 L 185.617188 71.105469 C 185.617188 65.945312 189.808594 61.75 194.96875 61.75 L 205.738281 61.75 C 210.894531 61.75 215.085938 65.945312 215.085938 71.105469 L 215.085938 81.777344 C 215.085938 83.714844 213.519531 85.285156 211.582031 85.285156 Z M 192.628906 78.269531 L 208.074219 78.269531 L 208.074219 71.105469 C 208.074219 69.8125 207.027344 68.765625 205.738281 68.765625 L 194.96875 68.765625 C 193.679688 68.765625 192.628906 69.8125 192.628906 71.105469 L 192.628906 78.269531 " fill-opacity="1" fill-rule="evenodd"/></g></svg>