<svg xmlns="http://www.w3.org/2000/svg" xmlns:xlink="http://www.w3.org/1999/xlink" width="300" zoomAndPan="magnify" viewBox="0 0 224.87999 225" height="300" preserveAspectRatio="xMidYMid meet" version="1.0"><defs><clipPath id="id1"><path d="M 71 20.019531 L 151 20.019531 L 151 110 L 71 110 Z M 71 20.019531 " clip-rule="nonzero"/></clipPath></defs><path fill="#212126" d="M 197.886719 204.90625 L 26.992188 204.90625 C 12.632812 204.90625 0.945312 193.207031 0.945312 178.828125 L 0.945312 70.007812 C 0.945312 55.628906 12.632812 43.929688 26.992188 43.929688 L 77.082031 43.929688 C 79.070312 43.929688 80.6875 45.546875 80.6875 47.539062 C 80.6875 49.53125 79.070312 51.148438 77.082031 51.148438 L 26.992188 51.148438 C 16.609375 51.148438 8.15625 59.605469 8.15625 70.007812 L 8.15625 178.828125 C 8.15625 189.226562 16.609375 197.6875 26.992188 197.6875 L 197.886719 197.6875 C 208.273438 197.6875 216.726562 189.226562 216.726562 178.828125 L 216.726562 70.007812 C 216.726562 59.609375 208.273438 51.148438 197.886719 51.148438 L 148.082031 51.148438 C 146.089844 51.148438 144.476562 49.53125 144.476562 47.539062 C 144.476562 45.546875 146.089844 43.929688 148.082031 43.929688 L 197.886719 43.929688 C 212.25 43.929688 223.9375 55.625 223.9375 70.007812 L 223.9375 178.828125 C 223.933594 193.207031 212.25 204.90625 197.886719 204.90625 Z M 197.886719 204.90625 " fill-opacity="1" fill-rule="nonzero"/><path fill="#212126" d="M 112.441406 167.03125 C 111.425781 167.03125 110.460938 166.605469 109.777344 165.855469 L 9.441406 55.679688 C 8.097656 54.207031 8.203125 51.921875 9.675781 50.582031 C 11.148438 49.238281 13.429688 49.347656 14.769531 50.816406 L 112.4375 158.0625 L 210.082031 50.769531 C 211.417969 49.296875 213.703125 49.1875 215.175781 50.53125 C 216.648438 51.871094 216.753906 54.152344 215.414062 55.628906 L 115.109375 165.851562 C 114.417969 166.605469 113.453125 167.03125 112.441406 167.03125 Z M 112.441406 167.03125 " fill-opacity="1" fill-rule="nonzero"/><path fill="#212126" d="M 14.449219 201.035156 C 13.496094 201.035156 12.546875 200.660156 11.839844 199.917969 C 10.464844 198.472656 10.519531 196.191406 11.960938 194.816406 L 80.960938 128.96875 C 82.394531 127.589844 84.679688 127.644531 86.058594 129.085938 C 87.433594 130.53125 87.378906 132.816406 85.9375 134.191406 L 16.9375 200.035156 C 16.238281 200.703125 15.34375 201.035156 14.449219 201.035156 Z M 14.449219 201.035156 " fill-opacity="1" fill-rule="nonzero"/><path fill="#212126" d="M 213.378906 198.660156 C 212.488281 198.660156 211.601562 198.328125 210.902344 197.675781 L 141.167969 131.773438 C 139.722656 130.402344 139.65625 128.117188 141.019531 126.667969 C 142.386719 125.222656 144.667969 125.15625 146.121094 126.523438 L 215.855469 192.425781 C 217.300781 193.796875 217.367188 196.082031 216 197.527344 C 215.292969 198.28125 214.339844 198.660156 213.378906 198.660156 Z M 213.378906 198.660156 " fill-opacity="1" fill-rule="nonzero"/><g clip-path="url(#id1)"><path fill="#212126" d="M 127.589844 44.042969 L 120.941406 44.042969 L 120.96875 49.71875 C 119.089844 45.570312 115.042969 42.949219 109.160156 42.949219 C 99.136719 42.949219 92.863281 50.582031 92.933594 62.476562 L 92.964844 66.738281 C 93.050781 79.171875 99.308594 86.273438 109.554688 86.273438 C 115.882812 86.273438 120.660156 83.003906 123.132812 77.972656 C 124.6875 82.769531 128.515625 85.609375 134.085938 85.609375 C 143.234375 85.609375 150.601562 77.210938 150.484375 59.753906 C 150.328125 36.613281 135.609375 19.921875 112.71875 19.921875 C 87.308594 19.921875 71.527344 38.253906 71.699219 64.550781 C 71.886719 93.574219 88.347656 109.300781 113.523438 109.300781 C 124.433594 109.300781 133.464844 107 140.847656 102.847656 L 140.789062 95.210938 C 132.648438 99.910156 123.511719 102.203125 113.476562 102.203125 C 93.859375 102.203125 79.601562 90.085938 79.445312 64.550781 C 79.277344 42.070312 91.175781 27.019531 112.753906 27.019531 C 132.050781 27.019531 142.824219 40.875 142.953125 59.855469 C 143.039062 73.496094 139.042969 78.304688 134.023438 78.304688 C 130.324219 78.304688 127.792969 75.789062 127.75 69.460938 Z M 120.105469 66.078125 C 120.167969 74.707031 116.480469 79.289062 110.480469 79.289062 C 104.496094 79.289062 100.753906 74.808594 100.699219 66.296875 L 100.675781 62.914062 C 100.632812 54.515625 104.183594 49.933594 110.300781 49.933594 C 116.515625 49.933594 120.027344 54.84375 120.082031 63.242188 Z M 120.105469 66.078125 " fill-opacity="1" fill-rule="nonzero"/></g></svg>