<svg xmlns="http://www.w3.org/2000/svg" xmlns:xlink="http://www.w3.org/1999/xlink" width="300" zoomAndPan="magnify" viewBox="0 0 224.87999 225" height="300" preserveAspectRatio="xMidYMid meet" version="1.0"><defs><clipPath id="id1"><path d="M 0 0.0585938 L 224.761719 0.0585938 L 224.761719 224.9375 L 0 224.9375 Z M 0 0.0585938 " clip-rule="nonzero"/></clipPath></defs><g clip-path="url(#id1)"><path fill="#212126" d="M 221.945312 24.289062 L 205.589844 24.289062 C 205.582031 22.964844 205.078125 21.640625 204.066406 20.632812 C 203.089844 19.65625 201.820312 19.160156 200.539062 19.125 L 200.539062 2.886719 C 200.539062 1.835938 199.910156 0.886719 198.941406 0.484375 C 197.980469 0.0820312 196.855469 0.296875 196.109375 1.035156 L 178.460938 18.503906 C 177.964844 18.992188 177.683594 19.660156 177.6875 20.359375 L 177.730469 39.613281 L 169.671875 47.675781 C 151.664062 31.492188 127.867188 21.625 101.808594 21.625 C 45.753906 21.625 0.148438 67.226562 0.148438 123.28125 C 0.148438 179.339844 45.753906 224.941406 101.808594 224.941406 C 157.859375 224.941406 203.464844 179.335938 203.464844 123.28125 C 203.464844 97.027344 193.457031 73.0625 177.058594 55.003906 L 185.109375 46.949219 L 204.351562 46.910156 C 205.035156 46.90625 205.691406 46.636719 206.175781 46.15625 L 223.773438 28.738281 C 224.523438 27.996094 224.75 26.875 224.351562 25.902344 C 223.949219 24.925781 223 24.289062 221.945312 24.289062 Z M 185.253906 123.28125 C 185.253906 169.296875 147.820312 206.730469 101.808594 206.730469 C 55.792969 206.730469 18.359375 169.296875 18.359375 123.28125 C 18.359375 77.269531 55.792969 39.835938 101.808594 39.835938 C 122.847656 39.835938 142.082031 47.679688 156.773438 60.574219 L 141.109375 76.242188 C 130.457031 67.328125 116.75 61.949219 101.808594 61.949219 C 67.988281 61.949219 40.472656 89.460938 40.472656 123.28125 C 40.472656 157.101562 67.988281 184.613281 101.808594 184.613281 C 135.625 184.613281 163.140625 157.101562 163.140625 123.28125 C 163.140625 108.144531 157.617188 94.28125 148.496094 83.574219 L 164.160156 67.90625 C 177.269531 82.652344 185.253906 102.046875 185.253906 123.28125 Z M 101.808594 146.890625 C 114.824219 146.890625 125.417969 136.300781 125.417969 123.28125 C 125.417969 118.558594 124.007812 114.164062 121.609375 110.46875 L 137.410156 94.660156 C 143.726562 102.503906 147.53125 112.453125 147.53125 123.28125 C 147.53125 148.496094 127.019531 169.003906 101.808594 169.003906 C 76.59375 169.003906 56.082031 148.496094 56.082031 123.28125 C 56.082031 98.070312 76.59375 77.558594 101.808594 77.558594 C 112.445312 77.558594 122.222656 81.242188 130 87.359375 L 114.160156 103.199219 C 110.5625 100.980469 106.339844 99.671875 101.808594 99.671875 C 88.789062 99.671875 78.199219 110.265625 78.199219 123.28125 C 78.199219 136.300781 88.789062 146.890625 101.808594 146.890625 Z M 101.808594 146.890625 " fill-opacity="1" fill-rule="nonzero"/></g></svg>