<svg xmlns="http://www.w3.org/2000/svg" xmlns:xlink="http://www.w3.org/1999/xlink" width="300" zoomAndPan="magnify" viewBox="0 0 224.87999 225" height="300" preserveAspectRatio="xMidYMid meet" version="1.0"><defs><clipPath id="id1"><path d="M 1 0.0585938 L 213 0.0585938 L 213 214 L 1 214 Z M 1 0.0585938 " clip-rule="nonzero"/></clipPath></defs><g clip-path="url(#id1)"><path fill="#212126" d="M 208.152344 186.089844 C 207.746094 185.6875 207.34375 185.320312 206.867188 184.953125 L 165.78125 150.617188 C 175.464844 134.914062 175.574219 114.996094 166.074219 99.21875 L 166.074219 46.578125 C 166.074219 46.539062 166.074219 46.503906 166.074219 46.503906 C 166.074219 46.394531 166 46.285156 166 46.136719 C 166 46.0625 165.964844 45.953125 165.964844 45.917969 C 165.816406 45.074219 165.488281 44.300781 164.863281 43.753906 L 122.273438 1.125 C 121.574219 0.464844 120.621094 0.0585938 119.628906 0.0585938 L 19.808594 0.0585938 C 9.683594 0.0585938 1.46875 8.277344 1.46875 18.402344 L 1.46875 194.492188 C 1.46875 204.617188 9.683594 212.832031 19.808594 212.832031 L 147.730469 212.832031 C 157.855469 212.832031 166.074219 204.617188 166.074219 194.492188 L 166.074219 186.53125 L 183.902344 207.84375 C 198.761719 224.941406 223.484375 202.707031 208.152344 186.089844 Z M 165.855469 124.679688 C 165.855469 135.90625 161.488281 146.46875 153.527344 154.394531 C 145.566406 162.320312 135.039062 166.71875 123.8125 166.71875 C 112.585938 166.71875 102.019531 162.355469 94.097656 154.394531 C 77.699219 137.996094 77.699219 111.324219 94.097656 94.964844 C 102.019531 87.039062 112.585938 82.636719 123.8125 82.636719 C 135.039062 82.636719 145.601562 87.003906 153.527344 94.964844 C 161.453125 102.925781 165.855469 113.453125 165.855469 124.679688 Z M 158.738281 194.492188 C 158.738281 200.542969 153.785156 205.496094 147.730469 205.496094 L 19.808594 205.496094 C 13.757812 205.496094 8.804688 200.542969 8.804688 194.492188 L 8.804688 18.402344 C 8.804688 12.347656 13.757812 7.398438 19.808594 7.398438 L 115.960938 7.398438 L 115.960938 46.503906 C 115.960938 48.519531 117.613281 50.171875 119.628906 50.171875 L 158.738281 50.171875 L 158.738281 89.792969 C 149.417969 80.472656 137.019531 75.339844 123.847656 75.339844 C 111.230469 75.339844 99.34375 80.070312 90.171875 88.65625 L 34.117188 88.65625 C 32.097656 88.65625 30.449219 90.304688 30.449219 92.324219 C 30.449219 94.339844 32.097656 95.992188 34.117188 95.992188 L 83.753906 95.992188 C 80.011719 101.238281 77.40625 107.035156 75.9375 113.085938 L 34.117188 113.085938 C 32.097656 113.085938 30.449219 114.738281 30.449219 116.753906 C 30.449219 118.773438 32.097656 120.425781 34.117188 120.425781 L 74.691406 120.425781 C 74.214844 126.148438 74.726562 131.90625 76.195312 137.484375 L 34.117188 137.484375 C 32.097656 137.484375 30.449219 139.132812 30.449219 141.152344 C 30.449219 143.167969 32.097656 144.820312 34.117188 144.820312 L 78.835938 144.820312 C 81.222656 150.175781 84.558594 155.203125 88.960938 159.605469 C 89.769531 160.410156 90.648438 161.179688 91.53125 161.914062 L 34.117188 161.914062 C 32.097656 161.914062 30.449219 163.566406 30.449219 165.582031 C 30.449219 167.601562 32.097656 169.25 34.117188 169.25 L 102.71875 169.25 C 109.394531 172.40625 116.585938 174.019531 123.847656 174.019531 C 132.800781 174.019531 141.679688 171.5625 149.566406 166.757812 L 158.738281 177.726562 Z M 158.738281 194.492188 " fill-opacity="1" fill-rule="nonzero"/></g><path fill="#212126" d="M 34.117188 71.558594 L 83.753906 71.558594 C 85.769531 71.558594 87.421875 69.910156 87.421875 67.890625 C 87.421875 65.875 85.769531 64.222656 83.753906 64.222656 L 34.117188 64.222656 C 32.097656 64.222656 30.449219 65.875 30.449219 67.890625 C 30.449219 69.910156 32.097656 71.558594 34.117188 71.558594 Z M 34.117188 71.558594 " fill-opacity="1" fill-rule="nonzero"/></svg>