<svg xmlns="http://www.w3.org/2000/svg" xmlns:xlink="http://www.w3.org/1999/xlink" width="300" zoomAndPan="magnify" viewBox="0 0 224.87999 225" height="300" preserveAspectRatio="xMidYMid meet" version="1.0"><defs><clipPath id="id1"><path d="M 11.242188 0.0585938 L 213.636719 0.0585938 L 213.636719 224.9375 L 11.242188 224.9375 Z M 11.242188 0.0585938 " clip-rule="nonzero"/></clipPath></defs><g clip-path="url(#id1)"><path fill="#212126" d="M 52.472656 209.949219 L 52.472656 123.742188 L 67.464844 123.742188 C 77.796875 123.742188 86.203125 115.335938 86.203125 105.003906 L 86.203125 67.523438 C 86.203125 57.191406 77.796875 48.785156 67.464844 48.785156 L 52.472656 48.785156 L 52.472656 15.050781 C 52.472656 10.917969 55.835938 7.554688 59.96875 7.554688 L 87.027344 7.554688 L 90.0625 19.710938 C 90.480469 21.378906 91.980469 22.546875 93.699219 22.546875 L 131.179688 22.546875 C 132.898438 22.546875 134.398438 21.378906 134.816406 19.710938 L 137.855469 7.554688 L 164.910156 7.554688 C 169.042969 7.554688 172.40625 10.917969 172.40625 15.050781 L 172.40625 37.730469 C 153.492188 39.617188 138.675781 55.617188 138.675781 75.019531 C 138.675781 94.421875 153.492188 110.425781 172.40625 112.3125 L 172.40625 209.949219 C 172.40625 214.082031 169.042969 217.445312 164.910156 217.445312 L 59.96875 217.445312 C 55.835938 217.445312 52.472656 214.082031 52.472656 209.949219 Z M 18.738281 105.003906 L 18.738281 67.523438 C 18.738281 61.324219 23.785156 56.28125 29.984375 56.28125 L 67.464844 56.28125 C 73.664062 56.28125 78.707031 61.324219 78.707031 67.523438 L 78.707031 105.003906 C 78.707031 111.203125 73.664062 116.25 67.464844 116.25 L 29.984375 116.25 C 23.785156 116.25 18.738281 111.203125 18.738281 105.003906 Z M 130.128906 7.554688 L 128.253906 15.050781 L 96.625 15.050781 L 94.753906 7.554688 Z M 206.140625 75.019531 C 206.140625 90.28125 194.671875 102.910156 179.902344 104.761719 L 179.902344 82.515625 L 187.398438 82.515625 C 189.46875 82.515625 191.148438 80.835938 191.148438 78.769531 C 191.148438 76.699219 189.46875 75.019531 187.398438 75.019531 L 179.902344 75.019531 L 179.902344 67.523438 C 179.902344 65.457031 181.585938 63.777344 183.652344 63.777344 C 185.71875 63.777344 187.398438 65.457031 187.398438 67.523438 C 187.398438 69.59375 189.078125 71.273438 191.148438 71.273438 C 193.21875 71.273438 194.894531 69.59375 194.894531 67.523438 C 194.894531 61.324219 189.851562 56.28125 183.652344 56.28125 C 177.453125 56.28125 172.40625 61.324219 172.40625 67.523438 L 172.40625 75.019531 L 164.910156 75.019531 C 162.84375 75.019531 161.164062 76.699219 161.164062 78.769531 C 161.164062 80.835938 162.84375 82.515625 164.910156 82.515625 L 172.40625 82.515625 L 172.40625 104.761719 C 157.640625 102.910156 146.171875 90.28125 146.171875 75.019531 C 146.171875 58.488281 159.625 45.035156 176.15625 45.035156 C 192.6875 45.035156 206.140625 58.488281 206.140625 75.019531 Z M 179.902344 209.949219 L 179.902344 112.3125 C 198.816406 110.425781 213.636719 94.421875 213.636719 75.019531 C 213.636719 55.617188 198.816406 39.617188 179.902344 37.730469 L 179.902344 15.050781 C 179.902344 6.785156 173.179688 0.0585938 164.910156 0.0585938 L 59.96875 0.0585938 C 51.703125 0.0585938 44.976562 6.785156 44.976562 15.050781 L 44.976562 48.785156 L 29.984375 48.785156 C 19.652344 48.785156 11.242188 57.191406 11.242188 67.523438 L 11.242188 105.003906 C 11.242188 115.335938 19.652344 123.742188 29.984375 123.742188 L 44.976562 123.742188 L 44.976562 209.949219 C 44.976562 218.214844 51.703125 224.941406 59.96875 224.941406 L 164.910156 224.941406 C 173.179688 224.941406 179.902344 218.214844 179.902344 209.949219 " fill-opacity="1" fill-rule="nonzero"/></g><path fill="#212126" d="M 48.722656 93.761719 C 44.589844 93.761719 41.226562 90.394531 41.226562 86.265625 C 41.226562 82.132812 44.589844 78.769531 48.722656 78.769531 C 52.855469 78.769531 56.21875 82.132812 56.21875 86.265625 C 56.21875 90.394531 52.855469 93.761719 48.722656 93.761719 Z M 48.722656 71.273438 C 40.457031 71.273438 33.730469 77.996094 33.730469 86.265625 C 33.730469 94.53125 40.457031 101.257812 48.722656 101.257812 C 56.992188 101.257812 63.714844 94.53125 63.714844 86.265625 C 63.714844 77.996094 56.992188 71.273438 48.722656 71.273438 " fill-opacity="1" fill-rule="nonzero"/><path fill="#212126" d="M 71.210938 67.523438 C 71.210938 65.453125 69.535156 63.777344 67.464844 63.777344 C 65.394531 63.777344 63.714844 65.453125 63.714844 67.523438 C 63.714844 69.59375 65.394531 71.273438 67.464844 71.273438 C 69.535156 71.273438 71.210938 69.59375 71.210938 67.523438 " fill-opacity="1" fill-rule="nonzero"/><path fill="#212126" d="M 151.019531 162.320312 C 150.414062 162.925781 150.039062 163.714844 149.945312 164.558594 C 149.933594 164.632812 149.042969 172.25 144.378906 179.882812 C 138.269531 189.886719 128.78125 194.957031 116.1875 194.957031 C 93.351562 194.957031 85.789062 180.011719 83.425781 172.46875 L 93.699219 172.46875 C 95.214844 172.46875 96.582031 171.554688 97.164062 170.15625 C 97.742188 168.753906 97.421875 167.140625 96.351562 166.070312 C 89.832031 159.550781 90.917969 147.902344 92.246094 141.230469 L 114.011719 156.777344 C 115.019531 157.5 116.316406 157.671875 117.484375 157.246094 C 118.644531 156.816406 119.523438 155.839844 119.824219 154.636719 C 119.832031 154.605469 120.640625 151.539062 122.933594 148.480469 C 125.917969 144.503906 129.953125 142.484375 134.929688 142.484375 C 139.59375 142.484375 142.753906 144.195312 144.597656 147.71875 C 146.117188 150.632812 146.171875 153.71875 146.171875 153.726562 C 146.171875 155.339844 147.203125 156.773438 148.734375 157.285156 L 154.226562 159.113281 Z M 162.351562 153.921875 L 153.414062 150.941406 C 153.140625 149.21875 152.574219 146.90625 151.398438 144.554688 C 148.3125 138.386719 142.464844 134.988281 134.929688 134.988281 C 124.019531 134.988281 117.5625 141.894531 114.460938 147.890625 L 92.128906 131.9375 C 91.164062 131.246094 89.925781 131.058594 88.792969 131.421875 C 87.664062 131.789062 86.773438 132.675781 86.394531 133.800781 C 86.109375 134.660156 80.480469 151.972656 86.59375 164.972656 L 78.707031 164.972656 C 77.632812 164.972656 76.609375 165.433594 75.898438 166.242188 C 75.1875 167.046875 74.855469 168.117188 74.988281 169.183594 C 75.03125 169.527344 76.105469 177.679688 81.710938 185.835938 C 86.921875 193.414062 97.132812 202.453125 116.1875 202.453125 C 135.351562 202.453125 145.574219 192.304688 150.773438 183.792969 C 155.105469 176.707031 156.6875 169.652344 157.1875 166.75 L 163.8125 160.125 C 164.734375 159.207031 165.109375 157.878906 164.8125 156.613281 C 164.511719 155.351562 163.582031 154.332031 162.351562 153.921875 " fill-opacity="1" fill-rule="nonzero"/></svg>